<?xml version="1.0" standalone="no"?>
<!DOCTYPE svg PUBLIC "-//W3C//DTD SVG 20010904//EN"
 "http://www.w3.org/TR/2001/REC-SVG-20010904/DTD/svg10.dtd">
<svg version="1.0" xmlns="http://www.w3.org/2000/svg"
 width="491.000000pt" height="534.000000pt" viewBox="0 0 491.000000 534.000000"
 preserveAspectRatio="xMidYMid meet">

<g transform="translate(0.000000,534.000000) scale(0.100000,-0.100000)"
fill="#000000" stroke="none">
<path d="M2210 4335 l0 -35 -175 0 c-96 0 -175 -3 -175 -7 1 -5 51 -73 113
-153 l112 -145 336 -3 336 -3 112 149 c61 82 111 152 111 156 0 3 -76 6 -170
6 l-170 0 0 35 0 35 -215 0 -215 0 0 -35z"/>
<path d="M1409 3183 c-1 -544 -1 -1004 -1 -1023 0 -19 1 -218 1 -442 l1 -408
1015 0 1015 0 0 20 c0 12 -20 56 -45 99 l-45 78 0 709 c0 437 4 723 10 745 5
19 26 54 45 76 l35 41 -2 544 -3 543 -229 0 -229 0 -91 -120 -92 -120 -371 -3
-370 -2 -94 124 -94 125 -227 1 -228 0 -1 -987z m691 372 l0 -245 -245 0 -245
0 0 245 0 245 245 0 245 0 0 -245z m800 105 l0 -60 -305 0 -305 0 0 60 0 60
305 0 305 0 0 -60z m200 -210 l0 -60 -405 0 -405 0 0 60 0 60 405 0 405 0 0
-60z m-1000 -715 l0 -245 -245 0 -245 0 0 245 0 245 245 0 245 0 0 -245z m800
115 l0 -60 -305 0 -305 0 0 60 0 60 305 0 305 0 0 -60z m200 -210 l0 -60 -405
0 -405 0 0 60 0 60 405 0 405 0 0 -60z m-1000 -725 l0 -245 -245 0 -245 0 0
245 0 245 245 0 245 0 0 -245z m800 105 l0 -60 -305 0 -305 0 0 60 0 60 305 0
305 0 0 -60z m200 -210 l0 -60 -405 0 -405 0 0 60 0 60 405 0 405 0 0 -60z"/>
<path d="M1660 3555 l0 -195 200 0 200 0 0 195 0 195 -200 0 -200 0 0 -195z
m346 125 c-52 -95 -133 -243 -148 -268 l-20 -33 -60 93 c-33 51 -62 98 -64
103 -3 6 8 18 24 27 l28 17 28 -45 c15 -24 32 -46 36 -49 5 -3 30 34 56 82 63
118 60 115 94 95 16 -9 27 -19 26 -22z"/>
<path d="M1660 2730 l0 -200 200 0 200 0 0 200 0 200 -200 0 -200 0 0 -200z
m320 145 l29 -15 -40 -73 c-21 -39 -58 -107 -82 -149 -23 -43 -45 -78 -49 -78
-3 0 -34 44 -68 97 l-62 96 23 18 c13 10 27 19 30 19 4 0 21 -23 39 -50 l33
-51 17 28 c9 15 34 61 56 100 21 40 40 73 42 73 2 0 16 -7 32 -15z"/>
<path d="M1660 1910 l0 -200 200 0 200 0 0 200 0 200 -200 0 -200 0 0 -200z
m320 145 l30 -15 -35 -63 c-20 -34 -57 -101 -83 -149 -26 -48 -50 -88 -53 -88
-4 0 -35 44 -69 97 l-62 97 22 18 c12 10 26 18 30 18 4 0 22 -23 40 -50 l33
-51 17 28 c9 15 34 61 56 100 21 40 40 73 42 73 2 0 16 -7 32 -15z"/>
<path d="M3469 2991 l-39 -39 0 -696 0 -697 133 3 132 3 3 674 c2 655 2 676
-18 715 -25 52 -64 76 -125 76 -42 0 -52 -5 -86 -39z"/>
<path d="M3456 1473 c15 -27 43 -76 63 -110 20 -35 39 -63 42 -63 4 0 96 155
126 213 2 4 -55 7 -127 7 l-132 0 28 -47z"/>
<path d="M1375 648 c-28 -16 -35 -28 -35 -66 0 -26 6 -36 31 -51 17 -11 46
-22 64 -25 45 -9 70 -38 56 -65 -20 -37 -94 -40 -133 -5 -11 11 -18 12 -23 4
-11 -18 12 -37 60 -49 80 -20 149 30 126 92 -10 25 -37 41 -98 57 -45 11 -63
31 -55 62 7 30 70 37 125 13 12 -5 17 -3 17 8 0 30 -95 48 -135 25z"/>
<path d="M1583 645 c-12 -32 3 -192 20 -218 37 -56 148 -56 185 1 21 33 25
222 5 229 -10 4 -13 -18 -13 -87 0 -125 -19 -161 -88 -160 -61 1 -82 44 -82
166 0 51 -4 84 -10 84 -6 0 -13 -7 -17 -15z"/>
<path d="M1880 526 l0 -136 84 0 c67 0 88 4 107 18 31 26 31 78 -1 102 -22 17
-23 19 -7 35 9 9 17 29 17 44 0 46 -29 62 -119 68 l-81 6 0 -137z m151 94 c21
-12 25 -50 7 -68 -7 -7 -38 -12 -70 -12 l-58 0 0 45 0 45 51 0 c28 0 59 -5 70
-10z m19 -128 c17 -14 21 -24 15 -41 -9 -28 -42 -41 -106 -41 l-49 0 0 50 0
50 59 0 c42 0 65 -5 81 -18z"/>
<path d="M2160 525 c0 -112 3 -135 15 -135 11 0 15 20 17 103 l3 102 43 -62
c23 -35 46 -63 50 -63 4 0 27 31 52 68 l45 67 3 -107 c2 -77 6 -108 15 -108 9
0 11 34 9 136 -2 99 -6 134 -15 132 -7 -3 -34 -37 -61 -76 l-50 -72 -49 75
c-27 41 -56 75 -63 75 -11 0 -14 -28 -14 -135z"/>
<path d="M2500 525 c0 -83 4 -135 10 -135 6 0 10 52 10 135 0 83 -4 135 -10
135 -6 0 -10 -52 -10 -135z"/>
<path d="M2626 639 c-40 -31 -37 -83 7 -109 17 -11 40 -20 49 -20 29 0 67 -22
74 -42 16 -51 -63 -75 -123 -38 -22 13 -34 16 -39 8 -16 -25 76 -62 127 -51
32 6 69 45 69 72 0 29 -29 59 -68 71 -79 24 -92 32 -92 54 0 12 5 27 12 34 15
15 73 16 100 1 13 -7 23 -8 30 -1 14 14 -42 42 -85 42 -20 0 -46 -9 -61 -21z"/>
<path d="M2880 647 c-32 -16 -47 -58 -32 -91 8 -19 26 -29 69 -42 67 -19 83
-30 83 -55 0 -46 -63 -63 -122 -33 -20 10 -34 12 -40 6 -11 -11 15 -29 65 -43
40 -11 103 6 117 31 16 29 12 65 -9 84 -10 9 -42 24 -71 34 -60 19 -81 42 -64
70 13 21 74 28 105 12 14 -8 24 -9 31 -2 7 7 0 16 -20 26 -37 19 -78 20 -112
3z"/>
<path d="M3100 526 c0 -115 2 -136 15 -136 13 0 15 19 13 132 -2 94 -7 133
-15 136 -10 3 -13 -28 -13 -132z"/>
<path d="M3263 641 c-47 -30 -67 -66 -66 -122 1 -64 37 -114 93 -129 144 -39
238 132 130 235 -39 38 -111 45 -157 16z m129 -31 c61 -48 59 -142 -5 -180
-69 -42 -134 -13 -160 72 -9 28 12 86 40 108 33 26 92 26 125 0z"/>
<path d="M3537 653 c-4 -3 -7 -64 -7 -135 0 -106 3 -128 15 -128 11 0 15 21
17 108 l3 107 84 -107 c47 -60 91 -108 98 -108 10 0 13 30 13 135 0 112 -3
135 -15 135 -11 0 -15 -21 -17 -106 l-3 -106 -84 106 c-83 105 -91 112 -104
99z"/>
</g>
</svg>
